<mxfile host="Electron" modified="2024-04-04T07:45:09.548Z" agent="Mozilla/5.0 (Windows NT 10.0; Win64; x64) AppleWebKit/537.36 (KHTML, like Gecko) draw.io/23.0.2 Chrome/120.0.6099.109 Electron/28.1.0 Safari/537.36" etag="6lGywpXEh67_NrYpe72h" version="23.0.2" type="device">
  <diagram name="Page-1" id="UZtA_n5xqZ3wlZ85LDrD">
    <mxGraphModel dx="864" dy="508" grid="1" gridSize="10" guides="1" tooltips="1" connect="1" arrows="1" fold="1" page="1" pageScale="1" pageWidth="1200" pageHeight="1600" math="0" shadow="0">
      <root>
        <mxCell id="0" />
        <mxCell id="1" parent="0" />
        <mxCell id="UqC43O2TAC-vg3flmHIA-1" value="User" style="shape=umlActor;verticalLabelPosition=bottom;verticalAlign=top;html=1;outlineConnect=0;" vertex="1" parent="1">
          <mxGeometry x="110" y="378" width="30" height="60" as="geometry" />
        </mxCell>
        <mxCell id="UqC43O2TAC-vg3flmHIA-2" value="Add Task" style="ellipse;whiteSpace=wrap;html=1;" vertex="1" parent="1">
          <mxGeometry x="380" y="369" width="120" height="80" as="geometry" />
        </mxCell>
        <mxCell id="UqC43O2TAC-vg3flmHIA-3" value="Update Task" style="ellipse;whiteSpace=wrap;html=1;" vertex="1" parent="1">
          <mxGeometry x="310" y="498" width="120" height="80" as="geometry" />
        </mxCell>
        <mxCell id="UqC43O2TAC-vg3flmHIA-4" value="Delete Task" style="ellipse;whiteSpace=wrap;html=1;" vertex="1" parent="1">
          <mxGeometry x="450" y="498" width="120" height="80" as="geometry" />
        </mxCell>
        <mxCell id="UqC43O2TAC-vg3flmHIA-5" value="&amp;lt;&amp;lt;extend&amp;gt;&amp;gt;" style="html=1;verticalAlign=bottom;labelBackgroundColor=none;endArrow=open;endFill=0;dashed=1;rounded=0;exitX=0.608;exitY=-0.037;exitDx=0;exitDy=0;exitPerimeter=0;entryX=0.233;entryY=1;entryDx=0;entryDy=0;entryPerimeter=0;" edge="1" parent="1" source="UqC43O2TAC-vg3flmHIA-3" target="UqC43O2TAC-vg3flmHIA-2">
          <mxGeometry width="160" relative="1" as="geometry">
            <mxPoint x="360" y="478" as="sourcePoint" />
            <mxPoint x="520" y="478" as="targetPoint" />
          </mxGeometry>
        </mxCell>
        <mxCell id="UqC43O2TAC-vg3flmHIA-6" value="&amp;lt;&amp;lt;extend&amp;gt;&amp;gt;" style="html=1;verticalAlign=bottom;labelBackgroundColor=none;endArrow=open;endFill=0;dashed=1;rounded=0;exitX=0.35;exitY=0.013;exitDx=0;exitDy=0;exitPerimeter=0;" edge="1" parent="1" source="UqC43O2TAC-vg3flmHIA-4" target="UqC43O2TAC-vg3flmHIA-2">
          <mxGeometry width="160" relative="1" as="geometry">
            <mxPoint x="570.04" y="485" as="sourcePoint" />
            <mxPoint x="615.04" y="448" as="targetPoint" />
          </mxGeometry>
        </mxCell>
        <mxCell id="UqC43O2TAC-vg3flmHIA-7" value="" style="endArrow=classic;html=1;rounded=0;exitX=0.5;exitY=0.5;exitDx=0;exitDy=0;exitPerimeter=0;entryX=0;entryY=0.5;entryDx=0;entryDy=0;" edge="1" parent="1" source="UqC43O2TAC-vg3flmHIA-1" target="UqC43O2TAC-vg3flmHIA-2">
          <mxGeometry width="50" height="50" relative="1" as="geometry">
            <mxPoint x="420" y="428" as="sourcePoint" />
            <mxPoint x="470" y="378" as="targetPoint" />
          </mxGeometry>
        </mxCell>
        <mxCell id="UqC43O2TAC-vg3flmHIA-8" value="View All Task" style="ellipse;whiteSpace=wrap;html=1;" vertex="1" parent="1">
          <mxGeometry x="380" y="228" width="120" height="80" as="geometry" />
        </mxCell>
        <mxCell id="UqC43O2TAC-vg3flmHIA-9" value="&amp;lt;&amp;lt;extend&amp;gt;&amp;gt;" style="html=1;verticalAlign=bottom;labelBackgroundColor=none;endArrow=open;endFill=0;dashed=1;rounded=0;exitX=0.5;exitY=1;exitDx=0;exitDy=0;entryX=0.5;entryY=0;entryDx=0;entryDy=0;" edge="1" parent="1" source="UqC43O2TAC-vg3flmHIA-8" target="UqC43O2TAC-vg3flmHIA-2">
          <mxGeometry width="160" relative="1" as="geometry">
            <mxPoint x="550.04" y="495" as="sourcePoint" />
            <mxPoint x="575.04" y="449" as="targetPoint" />
          </mxGeometry>
        </mxCell>
        <mxCell id="UqC43O2TAC-vg3flmHIA-10" value="Search for Task" style="ellipse;whiteSpace=wrap;html=1;" vertex="1" parent="1">
          <mxGeometry x="311" y="90" width="120" height="80" as="geometry" />
        </mxCell>
        <mxCell id="UqC43O2TAC-vg3flmHIA-11" value="&amp;lt;&amp;lt;extend&amp;gt;&amp;gt;" style="html=1;verticalAlign=bottom;labelBackgroundColor=none;endArrow=open;endFill=0;dashed=1;rounded=0;exitX=0.617;exitY=1.038;exitDx=0;exitDy=0;entryX=0.242;entryY=0.113;entryDx=0;entryDy=0;entryPerimeter=0;exitPerimeter=0;" edge="1" parent="1" source="UqC43O2TAC-vg3flmHIA-10" target="UqC43O2TAC-vg3flmHIA-8">
          <mxGeometry width="160" relative="1" as="geometry">
            <mxPoint x="440" y="110" as="sourcePoint" />
            <mxPoint x="440" y="171" as="targetPoint" />
          </mxGeometry>
        </mxCell>
        <mxCell id="UqC43O2TAC-vg3flmHIA-12" value="View Task" style="ellipse;whiteSpace=wrap;html=1;" vertex="1" parent="1">
          <mxGeometry x="450" y="90" width="120" height="80" as="geometry" />
        </mxCell>
        <mxCell id="UqC43O2TAC-vg3flmHIA-13" value="&amp;lt;&amp;lt;extend&amp;gt;&amp;gt;" style="html=1;verticalAlign=bottom;labelBackgroundColor=none;endArrow=open;endFill=0;dashed=1;rounded=0;exitX=0.358;exitY=1;exitDx=0;exitDy=0;entryX=0.775;entryY=0.1;entryDx=0;entryDy=0;entryPerimeter=0;exitPerimeter=0;" edge="1" parent="1" source="UqC43O2TAC-vg3flmHIA-12" target="UqC43O2TAC-vg3flmHIA-8">
          <mxGeometry width="160" relative="1" as="geometry">
            <mxPoint x="521.96" y="180" as="sourcePoint" />
            <mxPoint x="484.96000000000004" y="239.03999999999996" as="targetPoint" />
          </mxGeometry>
        </mxCell>
      </root>
    </mxGraphModel>
  </diagram>
</mxfile>
